<mxfile host="app.diagrams.net" modified="2024-02-14T20:35:07.097Z" agent="Mozilla/5.0 (Windows NT 10.0; Win64; x64) AppleWebKit/537.36 (KHTML, like Gecko) Chrome/121.0.0.0 Safari/537.36" etag="Nm6F6b9hYvNNGtgCwDFj" version="23.1.4" type="device">
  <diagram name="Page-1" id="80pk47xBg3n-YP-FPrMw">
    <mxGraphModel dx="1134" dy="656" grid="1" gridSize="10" guides="1" tooltips="1" connect="1" arrows="1" fold="1" page="1" pageScale="1" pageWidth="1169" pageHeight="1654" math="0" shadow="0">
      <root>
        <mxCell id="0" />
        <mxCell id="1" parent="0" />
        <mxCell id="NJuDFcs2f8-J617b0Ep2-2" value="Person" style="whiteSpace=wrap;html=1;align=center;strokeWidth=1;" vertex="1" parent="1">
          <mxGeometry x="120" y="300" width="100" height="40" as="geometry" />
        </mxCell>
        <mxCell id="NJuDFcs2f8-J617b0Ep2-3" value="Name" style="ellipse;whiteSpace=wrap;html=1;align=center;strokeWidth=1;" vertex="1" parent="1">
          <mxGeometry x="120" y="120" width="100" height="40" as="geometry" />
        </mxCell>
        <mxCell id="NJuDFcs2f8-J617b0Ep2-5" value="Address" style="ellipse;whiteSpace=wrap;html=1;align=center;strokeWidth=1;" vertex="1" parent="1">
          <mxGeometry x="210" y="190" width="100" height="40" as="geometry" />
        </mxCell>
        <mxCell id="NJuDFcs2f8-J617b0Ep2-7" value="" style="endArrow=none;html=1;rounded=0;exitX=0.5;exitY=1;exitDx=0;exitDy=0;entryX=0.2;entryY=0;entryDx=0;entryDy=0;entryPerimeter=0;strokeWidth=1;" edge="1" parent="1" target="NJuDFcs2f8-J617b0Ep2-2">
          <mxGeometry relative="1" as="geometry">
            <mxPoint x="80" y="230" as="sourcePoint" />
            <mxPoint x="240" y="250" as="targetPoint" />
          </mxGeometry>
        </mxCell>
        <mxCell id="NJuDFcs2f8-J617b0Ep2-8" value="" style="endArrow=none;html=1;rounded=0;exitX=0.75;exitY=0;exitDx=0;exitDy=0;entryX=0.5;entryY=1;entryDx=0;entryDy=0;strokeWidth=1;" edge="1" parent="1" source="NJuDFcs2f8-J617b0Ep2-2" target="NJuDFcs2f8-J617b0Ep2-5">
          <mxGeometry relative="1" as="geometry">
            <mxPoint x="230" y="310" as="sourcePoint" />
            <mxPoint x="390" y="310" as="targetPoint" />
          </mxGeometry>
        </mxCell>
        <mxCell id="NJuDFcs2f8-J617b0Ep2-9" value="" style="endArrow=none;html=1;rounded=0;exitX=0.5;exitY=0;exitDx=0;exitDy=0;entryX=0.5;entryY=1;entryDx=0;entryDy=0;strokeWidth=1;" edge="1" parent="1" source="NJuDFcs2f8-J617b0Ep2-2" target="NJuDFcs2f8-J617b0Ep2-3">
          <mxGeometry relative="1" as="geometry">
            <mxPoint x="150" y="260" as="sourcePoint" />
            <mxPoint x="310" y="260" as="targetPoint" />
          </mxGeometry>
        </mxCell>
        <mxCell id="NJuDFcs2f8-J617b0Ep2-10" value="Driver_Id" style="ellipse;whiteSpace=wrap;html=1;align=center;fontStyle=4;strokeWidth=1;" vertex="1" parent="1">
          <mxGeometry x="30" y="190" width="100" height="40" as="geometry" />
        </mxCell>
        <mxCell id="NJuDFcs2f8-J617b0Ep2-12" value="Car" style="whiteSpace=wrap;html=1;align=center;" vertex="1" parent="1">
          <mxGeometry x="485" y="300" width="100" height="40" as="geometry" />
        </mxCell>
        <mxCell id="NJuDFcs2f8-J617b0Ep2-13" value="Year" style="ellipse;whiteSpace=wrap;html=1;align=center;" vertex="1" parent="1">
          <mxGeometry x="585" y="190" width="100" height="40" as="geometry" />
        </mxCell>
        <mxCell id="NJuDFcs2f8-J617b0Ep2-14" value="&lt;u&gt;Vehicle_id&lt;/u&gt;" style="ellipse;whiteSpace=wrap;html=1;align=center;" vertex="1" parent="1">
          <mxGeometry x="385" y="190" width="100" height="40" as="geometry" />
        </mxCell>
        <mxCell id="NJuDFcs2f8-J617b0Ep2-15" value="Model" style="ellipse;whiteSpace=wrap;html=1;align=center;" vertex="1" parent="1">
          <mxGeometry x="485" y="120" width="100" height="40" as="geometry" />
        </mxCell>
        <mxCell id="NJuDFcs2f8-J617b0Ep2-16" value="" style="endArrow=none;html=1;rounded=0;entryX=0.75;entryY=0;entryDx=0;entryDy=0;" edge="1" parent="1" target="NJuDFcs2f8-J617b0Ep2-12">
          <mxGeometry relative="1" as="geometry">
            <mxPoint x="630" y="230" as="sourcePoint" />
            <mxPoint x="695.36" y="265.86" as="targetPoint" />
          </mxGeometry>
        </mxCell>
        <mxCell id="NJuDFcs2f8-J617b0Ep2-17" value="" style="endArrow=none;html=1;rounded=0;exitX=0.5;exitY=1;exitDx=0;exitDy=0;entryX=0.5;entryY=0;entryDx=0;entryDy=0;" edge="1" parent="1" source="NJuDFcs2f8-J617b0Ep2-15" target="NJuDFcs2f8-J617b0Ep2-12">
          <mxGeometry relative="1" as="geometry">
            <mxPoint x="530" y="189" as="sourcePoint" />
            <mxPoint x="690" y="189" as="targetPoint" />
          </mxGeometry>
        </mxCell>
        <mxCell id="NJuDFcs2f8-J617b0Ep2-18" value="" style="endArrow=none;html=1;rounded=0;exitX=0.5;exitY=1;exitDx=0;exitDy=0;entryX=0.25;entryY=0;entryDx=0;entryDy=0;" edge="1" parent="1" source="NJuDFcs2f8-J617b0Ep2-14" target="NJuDFcs2f8-J617b0Ep2-12">
          <mxGeometry relative="1" as="geometry">
            <mxPoint x="400" y="250" as="sourcePoint" />
            <mxPoint x="550" y="240" as="targetPoint" />
          </mxGeometry>
        </mxCell>
        <mxCell id="NJuDFcs2f8-J617b0Ep2-19" value="Has" style="shape=rhombus;perimeter=rhombusPerimeter;whiteSpace=wrap;html=1;align=center;" vertex="1" parent="1">
          <mxGeometry x="300" y="290" width="120" height="60" as="geometry" />
        </mxCell>
        <mxCell id="NJuDFcs2f8-J617b0Ep2-24" value="Participate" style="shape=rhombus;perimeter=rhombusPerimeter;whiteSpace=wrap;html=1;align=center;" vertex="1" parent="1">
          <mxGeometry x="475" y="410" width="120" height="60" as="geometry" />
        </mxCell>
        <mxCell id="NJuDFcs2f8-J617b0Ep2-28" value="" style="endArrow=none;html=1;rounded=0;exitX=1;exitY=0.5;exitDx=0;exitDy=0;entryX=0;entryY=0.5;entryDx=0;entryDy=0;" edge="1" parent="1" source="NJuDFcs2f8-J617b0Ep2-2" target="NJuDFcs2f8-J617b0Ep2-19">
          <mxGeometry relative="1" as="geometry">
            <mxPoint x="230" y="310" as="sourcePoint" />
            <mxPoint x="390" y="310" as="targetPoint" />
          </mxGeometry>
        </mxCell>
        <mxCell id="NJuDFcs2f8-J617b0Ep2-29" value="1" style="resizable=0;html=1;whiteSpace=wrap;align=right;verticalAlign=bottom;" connectable="0" vertex="1" parent="NJuDFcs2f8-J617b0Ep2-28">
          <mxGeometry x="1" relative="1" as="geometry" />
        </mxCell>
        <mxCell id="NJuDFcs2f8-J617b0Ep2-32" value="" style="endArrow=none;html=1;rounded=0;exitX=1;exitY=0.5;exitDx=0;exitDy=0;entryX=0;entryY=0.5;entryDx=0;entryDy=0;" edge="1" parent="1" source="NJuDFcs2f8-J617b0Ep2-19" target="NJuDFcs2f8-J617b0Ep2-12">
          <mxGeometry relative="1" as="geometry">
            <mxPoint x="420" y="360" as="sourcePoint" />
            <mxPoint x="580" y="360" as="targetPoint" />
          </mxGeometry>
        </mxCell>
        <mxCell id="NJuDFcs2f8-J617b0Ep2-33" value="N" style="resizable=0;html=1;whiteSpace=wrap;align=right;verticalAlign=bottom;" connectable="0" vertex="1" parent="NJuDFcs2f8-J617b0Ep2-32">
          <mxGeometry x="1" relative="1" as="geometry" />
        </mxCell>
        <mxCell id="NJuDFcs2f8-J617b0Ep2-36" value="Accident" style="whiteSpace=wrap;html=1;align=center;" vertex="1" parent="1">
          <mxGeometry x="690" y="420" width="100" height="40" as="geometry" />
        </mxCell>
        <mxCell id="NJuDFcs2f8-J617b0Ep2-43" value="Report_Id" style="ellipse;whiteSpace=wrap;html=1;align=center;fontStyle=4;" vertex="1" parent="1">
          <mxGeometry x="840" y="320" width="100" height="40" as="geometry" />
        </mxCell>
        <mxCell id="NJuDFcs2f8-J617b0Ep2-44" value="Date" style="ellipse;whiteSpace=wrap;html=1;align=center;" vertex="1" parent="1">
          <mxGeometry x="840" y="520" width="100" height="40" as="geometry" />
        </mxCell>
        <mxCell id="NJuDFcs2f8-J617b0Ep2-45" value="Location" style="ellipse;whiteSpace=wrap;html=1;align=center;" vertex="1" parent="1">
          <mxGeometry x="840" y="420" width="100" height="40" as="geometry" />
        </mxCell>
        <mxCell id="NJuDFcs2f8-J617b0Ep2-46" value="" style="endArrow=none;html=1;rounded=0;exitX=1;exitY=1;exitDx=0;exitDy=0;entryX=0;entryY=0;entryDx=0;entryDy=0;" edge="1" parent="1" source="NJuDFcs2f8-J617b0Ep2-36" target="NJuDFcs2f8-J617b0Ep2-44">
          <mxGeometry relative="1" as="geometry">
            <mxPoint x="790" y="480" as="sourcePoint" />
            <mxPoint x="860" y="520" as="targetPoint" />
          </mxGeometry>
        </mxCell>
        <mxCell id="NJuDFcs2f8-J617b0Ep2-47" value="" style="endArrow=none;html=1;rounded=0;exitX=1;exitY=0.5;exitDx=0;exitDy=0;entryX=0;entryY=0.5;entryDx=0;entryDy=0;" edge="1" parent="1" source="NJuDFcs2f8-J617b0Ep2-36" target="NJuDFcs2f8-J617b0Ep2-45">
          <mxGeometry relative="1" as="geometry">
            <mxPoint x="800" y="480" as="sourcePoint" />
            <mxPoint x="960" y="480" as="targetPoint" />
          </mxGeometry>
        </mxCell>
        <mxCell id="NJuDFcs2f8-J617b0Ep2-48" value="" style="endArrow=none;html=1;rounded=0;exitX=1;exitY=0;exitDx=0;exitDy=0;entryX=0;entryY=1;entryDx=0;entryDy=0;" edge="1" parent="1" source="NJuDFcs2f8-J617b0Ep2-36" target="NJuDFcs2f8-J617b0Ep2-43">
          <mxGeometry relative="1" as="geometry">
            <mxPoint x="780" y="390" as="sourcePoint" />
            <mxPoint x="940" y="390" as="targetPoint" />
          </mxGeometry>
        </mxCell>
        <mxCell id="NJuDFcs2f8-J617b0Ep2-49" value="" style="endArrow=none;html=1;rounded=0;dashed=1;dashPattern=1 2;exitX=1;exitY=0.5;exitDx=0;exitDy=0;entryX=0;entryY=0.5;entryDx=0;entryDy=0;" edge="1" parent="1" source="NJuDFcs2f8-J617b0Ep2-24" target="NJuDFcs2f8-J617b0Ep2-36">
          <mxGeometry relative="1" as="geometry">
            <mxPoint x="580" y="520" as="sourcePoint" />
            <mxPoint x="740" y="520" as="targetPoint" />
          </mxGeometry>
        </mxCell>
        <mxCell id="NJuDFcs2f8-J617b0Ep2-50" value="N" style="resizable=0;html=1;whiteSpace=wrap;align=right;verticalAlign=bottom;" connectable="0" vertex="1" parent="NJuDFcs2f8-J617b0Ep2-49">
          <mxGeometry x="1" relative="1" as="geometry" />
        </mxCell>
        <mxCell id="NJuDFcs2f8-J617b0Ep2-51" value="" style="endArrow=none;html=1;rounded=0;exitX=0.5;exitY=1;exitDx=0;exitDy=0;entryX=0;entryY=0.5;entryDx=0;entryDy=0;" edge="1" parent="1" source="NJuDFcs2f8-J617b0Ep2-2" target="NJuDFcs2f8-J617b0Ep2-24">
          <mxGeometry relative="1" as="geometry">
            <mxPoint x="460" y="410" as="sourcePoint" />
            <mxPoint x="620" y="410" as="targetPoint" />
          </mxGeometry>
        </mxCell>
        <mxCell id="NJuDFcs2f8-J617b0Ep2-52" value="1" style="resizable=0;html=1;whiteSpace=wrap;align=right;verticalAlign=bottom;" connectable="0" vertex="1" parent="NJuDFcs2f8-J617b0Ep2-51">
          <mxGeometry x="1" relative="1" as="geometry" />
        </mxCell>
        <mxCell id="NJuDFcs2f8-J617b0Ep2-53" value="" style="endArrow=none;html=1;rounded=0;exitX=0.5;exitY=1;exitDx=0;exitDy=0;entryX=0.5;entryY=0;entryDx=0;entryDy=0;" edge="1" parent="1" source="NJuDFcs2f8-J617b0Ep2-12" target="NJuDFcs2f8-J617b0Ep2-24">
          <mxGeometry relative="1" as="geometry">
            <mxPoint x="540" y="360" as="sourcePoint" />
            <mxPoint x="700" y="360" as="targetPoint" />
          </mxGeometry>
        </mxCell>
        <mxCell id="NJuDFcs2f8-J617b0Ep2-54" value="1" style="resizable=0;html=1;whiteSpace=wrap;align=right;verticalAlign=bottom;" connectable="0" vertex="1" parent="NJuDFcs2f8-J617b0Ep2-53">
          <mxGeometry x="1" relative="1" as="geometry" />
        </mxCell>
      </root>
    </mxGraphModel>
  </diagram>
</mxfile>
